Coordinates
version=1
nRows=9
nColumns=63
inDegrees=yes

Units are S.I. units (second, meters, Newtons, ...)
If the header above contains a line with 'inDegrees', this indicates whether rotational values are in degrees (yes) or radians (no).

endheader
time	pelvis_tilt	pelvis_list	pelvis_rotation	pelvis_tx	pelvis_ty	pelvis_tz	hip_flexion_r	hip_adduction_r	hip_rotation_r	knee_angle_r	knee_angle_r_beta	ankle_angle_r	subtalar_angle_r	mtp_angle_r	hip_flexion_l	hip_adduction_l	hip_rotation_l	knee_angle_l	knee_angle_l_beta	ankle_angle_l	subtalar_angle_l	mtp_angle_l	L5_S1_Flex_Ext	L5_S1_Lat_Bending	L5_S1_axial_rotation	L4_L5_Flex_Ext	L4_L5_Lat_Bending	L4_L5_axial_rotation	L3_L4_Flex_Ext	L3_L4_Lat_Bending	L3_L4_axial_rotation	L2_L3_Flex_Ext	L2_L3_Lat_Bending	L2_L3_axial_rotation	L1_L2_Flex_Ext	L1_L2_Lat_Bending	L1_L2_axial_rotation	L1_T12_Flex_Ext	L1_T12_Lat_Bending	L1_T12_axial_rotation	Abs_r3	Abs_r2	Abs_r1	Abs_t1	Abs_t2	neck_flexion	neck_bending	neck_rotation	arm_flex_r	arm_add_r	arm_rot_r	elbow_flex_r	pro_sup_r	wrist_flex_r	wrist_dev_r	arm_flex_l	arm_add_l	arm_rot_l	elbow_flex_l	pro_sup_l	wrist_flex_l	wrist_dev_l
      2.46808511	     -4.56172491	     -2.68484709	     98.88693214	      0.10069431	      0.47109489	      0.80316195	      0.47924774	      1.16829864	     -9.29376298	      5.85114677	      0.10212178	     30.78253296	     14.53482263	      0.00000000	      1.48508399	     -0.75254303	      6.95899984	      6.20210933	      0.10824723	     25.21357300	      0.33065420	      0.00000000	     -0.14897455	     -0.31208934	     -1.32903236	     -0.27666064	     -0.41507882	     -1.41209688	     -0.24475029	     -0.75881402	     -1.41209688	     -0.17026301	     -0.75881402	     -1.16290331	     -0.13833777	     -0.63641258	     -1.07983879	     -0.08512406	     -0.48342639	     -0.99677427	     -1.06411032	     -3.53041704	     -7.39167928	      0.00000000	      0.00000000	     11.82941190	     -2.72973141	      7.18425132	      4.68208939	     -7.76764243	     18.04083909	     42.59411378	     83.63718241	     -5.07432255	     -2.49929995	      4.32836840	    -12.15209023	     30.20065694	     44.55660731	     86.64091480	    -10.34380273	      5.62431521
      2.48936170	     -4.37820542	     -2.93092906	     99.34781318	      0.09948734	      0.47063706	      0.80469868	      0.98446386	      1.18805743	    -10.64405520	      6.24996853	      0.10908253	     30.94403269	     15.63193830	      0.00000000	      2.13596377	     -0.83983451	      7.27819044	      6.79771033	      0.11864243	     25.08879494	      0.33940375	      0.00000000	     -0.15156537	     -0.27788144	     -1.33251268	     -0.28147204	     -0.36958232	     -1.41579472	     -0.24900674	     -0.67564093	     -1.41579472	     -0.17322406	     -0.67564093	     -1.16594859	     -0.14074360	     -0.56665583	     -1.08266655	     -0.08660445	     -0.43043835	     -0.99938451	     -1.08261626	     -3.14345043	     -7.41103575	      0.00000000	      0.00000000	     11.15703479	     -3.00125551	      6.95051302	      4.12158884	     -7.60776107	     15.09535697	     44.04976206	     83.83450963	     -7.28193000	     -1.86792310	      5.48488018	    -11.84067352	     32.55957651	     42.95345846	     87.44915956	    -10.40901379	      4.49725145
      2.51063830	     -4.30901212	     -3.05999722	     99.59430728	      0.09882164	      0.47037519	      0.80589602	      1.29071049	      1.17624935	    -11.00780965	      6.55816884	      0.11446164	     30.94293975	     15.75198741	      0.00000000	      2.51373994	     -0.85138829	      7.23891553	      7.16200159	      0.12500051	     24.94829722	      0.41822471	      0.00000000	     -0.17611192	     -0.25866146	     -1.38071071	     -0.32705745	     -0.34401974	     -1.46700513	     -0.28933427	     -0.62890947	     -1.46700513	     -0.20127831	     -0.62890947	     -1.20812187	     -0.16353753	     -0.52746245	     -1.12182745	     -0.10063035	     -0.40066660	     -1.03553303	     -1.25794983	     -2.92603016	     -7.67909876	      0.00000000	      0.00000000	     10.71088185	     -2.98864554	      7.05142189	      4.15506786	     -7.40296285	     13.18156336	     44.76414879	     83.00681160	     -8.21253989	     -1.87466820	      6.10274025	    -11.55300629	     33.65464534	     41.93221608	     88.07099894	    -10.05055124	      4.56846927
      2.53191489	     -4.25768912	     -3.16747571	     99.77595308	      0.09838128	      0.47023590	      0.80686984	      1.52328986	      1.14560625	    -11.75902178	      6.79058565	      0.11851808	     30.86529933	     16.42358993	      0.00000000	      2.86801376	     -0.88934450	      6.53472829	      7.49603159	      0.13083043	     25.09879583	      1.24727637	      0.00000000	     -0.20463197	     -0.24582399	     -1.36340608	     -0.38002203	     -0.32694591	     -1.44861896	     -0.33618986	     -0.59769645	     -1.44861896	     -0.23387388	     -0.59769645	     -1.19298032	     -0.19002125	     -0.50128428	     -1.10776744	     -0.11692671	     -0.38078136	     -1.02255456	     -1.46166569	     -2.78081016	     -7.58285557	      0.00000000	      0.00000000	     10.34361470	     -3.24005809	      6.18731609	      3.93798819	     -7.19775685	     10.99406280	     45.67293047	     82.98888053	     -9.24555714	     -1.31712413	      7.22784656	    -11.40082262	     36.24379479	     40.59408147	     88.25156737	    -10.01836334	      4.53608332
      2.55319149	     -4.28339100	     -3.22832039	     99.94848537	      0.09805167	      0.47028676	      0.80755338	      1.59878124	      1.09469846	    -11.91342866	      6.86114530	      0.11974958	     30.71797022	     16.44260442	      0.00000000	      3.03932856	     -0.83343041	      6.31428868	      7.55818779	      0.13191526	     25.17972103	      1.44635466	      0.00000000	     -0.23358393	     -0.24269229	     -1.42184809	     -0.43378872	     -0.32278074	     -1.51071359	     -0.38375505	     -0.59008203	     -1.51071359	     -0.26696308	     -0.59008203	     -1.24411708	     -0.21690604	     -0.49489811	     -1.15525157	     -0.13346986	     -0.37593035	     -1.06638607	     -1.66846668	     -2.74538370	     -7.90789251	      0.00000000	      0.00000000	     10.04620864	     -3.11830581	      6.22108817	      4.12199938	     -6.93933519	      9.77184542	     45.80772076	     82.40218760	     -9.84330414	     -1.22031610	      7.62301573	    -11.17694831	     36.99262494	     39.81489331	     88.61949920	     -9.82350171	      4.92707628
      2.57446809	     -4.28648390	     -3.26897737	    100.18006192	      0.09803589	      0.47028326	      0.80788418	      1.58266392	      1.09784029	    -12.37691935	      6.83243566	      0.11924850	     30.57250509	     16.77864788	      0.00000000	      3.48220344	     -1.11588905	      2.22930432	      8.13261663	      0.14194094	     26.59645540	      7.20318463	      0.00000000	     -0.25496231	     -0.24494830	     -1.39344742	     -0.47349050	     -0.32578124	     -1.48053788	     -0.41887757	     -0.59556731	     -1.48053788	     -0.29139642	     -0.59556731	     -1.21926649	     -0.23675800	     -0.49949858	     -1.13217603	     -0.14568546	     -0.37942492	     -1.04508556	     -1.82117025	     -2.77090421	     -7.74993650	      0.00000000	      0.00000000	      9.91511907	     -3.20506202	      5.28606229	      3.68673864	     -6.70378325	      7.95509674	     46.45299317	     82.51485384	    -10.31495092	     -0.73587061	      8.68680352	    -11.32546326	     40.06964356	     38.95731427	     88.69376399	    -10.09201865	      4.99773704
      2.59574468	     -4.36263916	     -3.23784232	    100.13985955	      0.09807567	      0.47048636	      0.80791127	      1.47127204	      1.04345037	    -12.39596944	      6.76486318	      0.11806914	     30.40117493	     16.85752718	      0.00000000	      3.45346008	     -1.05439427	      1.75571148	      8.04761957	      0.14045746	     26.98896591	      7.66413563	      0.00000000	     -0.27432320	     -0.25127455	     -1.38640707	     -0.50944561	     -0.33419516	     -1.47305751	     -0.45068558	     -0.61094895	     -1.47305751	     -0.31352398	     -0.61094895	     -1.21310619	     -0.25473652	     -0.51239907	     -1.12645574	     -0.15674828	     -0.38922428	     -1.03980530	     -1.95946318	     -2.84246800	     -7.71078020	      0.00000000	      0.00000000	      9.84055987	     -3.33706619	      4.78380422	      3.65176895	     -6.63793567	      7.49887690	     46.48392473	     81.69641557	    -10.92328215	     -0.66978024	      9.05478870	    -11.36258145	     41.47361343	     38.46228526	     88.83459495	    -10.59049118	      4.83634729
      2.61702128	     -4.50222062	     -3.16080378	     99.84448860	      0.09846815	      0.47078529	      0.80769491	      1.28864339	      0.95404513	    -11.93507869	      6.60930435	      0.11535412	     30.27483871	     16.69384095	      0.00000000	      3.22341498	     -0.95634014	      0.95380845	      7.79299492	      0.13601342	     27.21955093	      8.28154273	      0.00000000	     -0.29679487	     -0.26404538	     -1.34392532	     -0.55117774	     -0.35118036	     -1.42792065	     -0.48760428	     -0.64199995	     -1.42792065	     -0.33920685	     -0.64199995	     -1.17593466	     -0.27560371	     -0.53844135	     -1.09193932	     -0.16958859	     -0.40900630	     -1.00794399	     -2.11997604	     -2.98693419	     -7.47450946	      0.00000000	      0.00000000	      9.83770562	     -3.48945657	      4.27224752	      3.58702564	     -6.51319805	      6.97207078	     46.48739895	     81.18197051	    -11.07984907	     -0.53626772	      9.13455607	    -11.39998091	     42.32001924	     38.08978616	     88.92149925	    -11.14946025	      4.14311323
      2.63829787	     -4.51926486	     -3.09356296	     99.52554923	      0.09868631	      0.47111451	      0.80760285	      1.14244145	      0.97085128	    -11.58307452	      6.40802533	      0.11184114	     30.10029539	     16.72190117	      0.00000000	      3.01961807	     -0.94108309	      0.61892718	      7.57568825	      0.13222070	     27.27943225	      8.28909036	      0.00000000	     -0.31386417	     -0.25972384	     -1.28020802	     -0.58287714	     -0.34543270	     -1.36022102	     -0.51564744	     -0.63149254	     -1.36022102	     -0.35871535	     -0.63149254	     -1.12018202	     -0.29145426	     -0.52962885	     -1.04016902	     -0.17934198	     -0.40231222	     -0.96015602	     -2.24190035	     -2.93804799	     -7.12013295	      0.00000000	      0.00000000	      9.66783933	     -3.60809455	      3.73325288	      3.45370482	     -6.71141426	      7.04209269	     46.67843371	     79.68192423	    -11.27208332	     -0.69493280	      9.22213623	    -11.31900045	     43.41903148	     37.62492055	     88.95136056	    -11.95928552	      3.27124325
